<svg xmlns="http://www.w3.org/2000/svg" viewBox="0 0 430 430">
  <g style="isolation: isolate">
    <g id="Warstwa_1" data-name="Warstwa 1">
      <g>
        <path d="M360.4,342.37l-18.56-38.72L221.61,53.1a3.5,3.5,0,0,0-6.56.7l-24.67,48.41-11.3,22.16-.19.37h0L170.63,141l-.83,1.63-9.09,17.84,0,0-9.06,17.8-9,17.57-.12.23,0,0c-.6,1.12-2.46,4.77-9.15,17.91-4.9,9.62-8.92,17.5-9.12,17.91l-.17.3-11.26,22.09L69.63,339.15a3.49,3.49,0,0,0,1.53,4.7,326.56,326.56,0,0,0,143.76,35l3.67,0A320.88,320.88,0,0,0,358.76,347,3.49,3.49,0,0,0,360.4,342.37Z" style="fill: #ffc738"/>
        <path d="M282.24,248.15a24.32,24.32,0,1,0-1.46,18.56A24.17,24.17,0,0,0,282.24,248.15Z" style="fill: #f24c00"/>
        <path d="M197.48,251.53a24.32,24.32,0,1,0-23.16,31.86,24.45,24.45,0,0,0,7.54-1.2,24.33,24.33,0,0,0,15.62-30.66Z" style="fill: #f24c00"/>
        <path d="M240.31,167.48a24.33,24.33,0,1,0-23.16,31.86,24.55,24.55,0,0,0,7.54-1.2,24.33,24.33,0,0,0,15.62-30.66Z" style="fill: #f24c00"/>
        <path d="M217.17,51.37a3.46,3.46,0,0,0-2.12,2.43l-24.67,48.41-11.3,22.16-.19.37h0L170.63,141l-.83,1.63-9.09,17.84,0,0-9.06,17.8-9,17.57-.12.23,0,0c-.6,1.12-2.46,4.77-9.15,17.91-4.9,9.62-8.92,17.5-9.12,17.91l-.17.3-11.26,22.09L69.63,339.15a3.49,3.49,0,0,0,1.53,4.7,326.56,326.56,0,0,0,143.76,35h2.25Z" style="fill: #ffc738;opacity: 0.5;mix-blend-mode: multiply"/>
        <path d="M360.4,342.37l-18.56-38.72-1.5-3.13L337.17,302a270.85,270.85,0,0,1-121.7,26.93A276.14,276.14,0,0,1,94,299.08l-3.15-1.51-1.56,3L69.63,339.15a3.49,3.49,0,0,0,1.53,4.7,326.56,326.56,0,0,0,143.76,35l3.67,0A320.88,320.88,0,0,0,358.76,347,3.49,3.49,0,0,0,360.4,342.37Z" style="fill: #f24c00"/>
        <path d="M217.17,328.94h-1.7A276.14,276.14,0,0,1,94,299.08l-3.15-1.51-1.56,3L69.63,339.15a3.49,3.49,0,0,0,1.53,4.7,326.56,326.56,0,0,0,143.76,35h2.25Z" style="fill: #f24c00;opacity: 0.5;mix-blend-mode: multiply"/>
      </g>
    </g>
  </g>
</svg>
