<?xml version="1.0" encoding="utf-8"?>
<!-- Generator: Adobe Illustrator 26.3.1, SVG Export Plug-In . SVG Version: 6.00 Build 0)  -->
<svg version="1.1" id="Warstwa_1" xmlns="http://www.w3.org/2000/svg" xmlns:xlink="http://www.w3.org/1999/xlink" x="0px" y="0px"
	 viewBox="0 0 430 430" style="enable-background:new 0 0 430 430;" xml:space="preserve">
<style type="text/css">
	.Styl_x0020_grafiki_x0020_545{fill:#4bb3fd;}
	.Styl_x0020_grafiki_x0020_633{opacity:0.5;fill:#4bb3fd;}
	.st0{fill:#646E78;}
	.st1{fill:none;stroke:#646E78;stroke-width:7;stroke-linecap:round;stroke-linejoin:round;stroke-miterlimit:10;}
	.st2{fill:#EBE6EF;}
	.st3{fill:#121331;}
	.st4{fill:#3A3347;}
	.st5{fill:#92140C;}
	.st6{fill:#f24c00;}
	.st7{opacity:0.5;fill:#f24c00;}
	.st8{opacity:0.5;fill:#EBE6EF;}
	.st9{fill:#FFC738;}
	.st10{opacity:0.5;fill:#FFC738;}
	.st11{fill:#121331;stroke:#EBE6EF;stroke-width:7;stroke-linecap:round;stroke-linejoin:round;stroke-miterlimit:10;}
	.st12{fill:#4bb3fd;}
	.st13{opacity:0.5;fill:#4bb3fd;}
	.st14{fill:none;stroke:#121331;stroke-width:7;stroke-linecap:round;stroke-linejoin:round;stroke-miterlimit:10;}
	.st15{opacity:0.5;}
	.st16{fill:#121331;stroke:#4bb3fd;stroke-width:30;stroke-linecap:round;stroke-linejoin:round;stroke-miterlimit:10;}
	.st17{fill:none;stroke:#121331;stroke-width:12;stroke-linecap:round;stroke-linejoin:round;}
	.st18{fill:#2CA58D;}
	.st19{fill:none;stroke:#08A88A;stroke-width:12;stroke-linecap:round;stroke-linejoin:round;stroke-miterlimit:10;}
	.st20{opacity:0.5;fill:#2CA58D;}
	.st21{opacity:0.5;fill:#646E78;}
	.st22{fill:none;stroke:#FFC738;stroke-width:7;stroke-linecap:round;stroke-linejoin:round;stroke-miterlimit:10;}
	.st23{fill:#3A3347;stroke:#121331;stroke-width:7;stroke-linecap:round;stroke-linejoin:round;stroke-miterlimit:10;}
	.st24{opacity:0.5;fill:#3A3347;}
	.st25{fill:url(#SVGID_1_);}
	.st26{fill:url(#SVGID_00000036211701736497639840000013845899999494996618_);}
	.st27{fill:url(#SVGID_00000004526134910643765360000007125633038344847265_);}
	.st28{fill:#B26836;}
	.st29{opacity:0.5;fill:#92140C;}
	.st30{fill:#F28BA8;}
	.st31{fill:none;stroke:#EBE6EF;stroke-width:7;stroke-linecap:round;stroke-linejoin:round;stroke-miterlimit:10;}
	.st32{opacity:0.5;fill:#B26836;}
	.st33{fill:#08A789;}
	.st34{fill:#FFFFFF;}
	.st35{fill:none;stroke:#B26836;stroke-width:7;stroke-linecap:round;stroke-linejoin:round;stroke-miterlimit:10;}
	.st36{opacity:0.99;fill:#EBE6EF;}
	.st37{fill:#F9C9C0;}
	.st38{opacity:0.5;fill:#F9C9C0;}
	.st39{opacity:0.5;fill:#F28BA8;}
	.st40{fill:none;stroke:#08A284;stroke-width:12;stroke-linecap:round;stroke-linejoin:round;stroke-miterlimit:10;}
	.st41{fill:none;stroke:#92140C;stroke-width:7;stroke-linecap:round;stroke-linejoin:round;stroke-miterlimit:10;}
	.st42{fill:none;stroke:#08A688;stroke-width:12;stroke-linecap:round;stroke-linejoin:round;stroke-miterlimit:10;}
	.st43{opacity:0.96;fill:#EBE6EF;}
	.st44{fill:none;stroke:#121331;stroke-width:12;stroke-linecap:round;stroke-linejoin:round;stroke-miterlimit:10;}
	.st45{fill:#08A88A;}
	.st46{fill:none;stroke:#2CA58D;stroke-width:7;stroke-linecap:round;stroke-linejoin:round;stroke-miterlimit:10;}
	.st47{fill:#121331;stroke:#FFC738;stroke-width:7;stroke-linecap:round;stroke-linejoin:round;stroke-miterlimit:10;}
	.st48{fill:#121331;stroke:#92140C;stroke-width:7;stroke-linejoin:round;stroke-miterlimit:10;}
	.st49{fill:none;stroke:#92140C;stroke-width:7;stroke-linejoin:round;stroke-miterlimit:10;}
	.st50{opacity:0.75;fill:#EBE6EF;}
	.st51{fill:#121331;stroke:#646E78;stroke-width:12;stroke-linecap:round;stroke-linejoin:round;stroke-miterlimit:10;}
	.st52{fill:#E94E12;}
	.st53{fill:#E84F16;}
	.st54{opacity:0.5;fill:#FFFFFF;}
</style>
<polygon class="Styl_x0020_grafiki_x0020_545" points="215,54.88 83.29,118.31 50.76,260.83 141.91,375.12 288.09,375.12 
	379.24,260.83 346.71,118.31 "/>
<polygon class="Styl_x0020_grafiki_x0020_633" points="101.53,267.98 134.06,129.7 253.99,73.66 215,54.88 83.29,118.31 
	50.76,260.83 141.91,375.12 189.59,375.12 "/>
<path class="st6" d="M215,69.88c-0.49,0-0.99-0.03-1.48-0.07c-0.49-0.05-0.97-0.13-1.46-0.22c-0.47-0.1-0.95-0.22-1.42-0.36
	c-0.47-0.15-0.93-0.31-1.38-0.5s-0.9-0.4-1.33-0.63c-0.43-0.23-0.86-0.48-1.26-0.75c-0.41-0.27-0.81-0.56-1.19-0.87
	c-0.38-0.32-0.75-0.65-1.09-0.99c-0.35-0.35-0.68-0.72-0.99-1.1c-0.31-0.38-0.61-0.78-0.88-1.19c-0.27-0.4-0.52-0.83-0.75-1.26
	c-0.23-0.43-0.44-0.87-0.63-1.32c-0.18-0.46-0.35-0.92-0.49-1.39c-0.14-0.46-0.27-0.94-0.36-1.42c-0.1-0.48-0.17-0.97-0.22-1.46
	c-0.05-0.48-0.08-0.98-0.08-1.47c0-0.49,0.03-0.99,0.08-1.48c0.05-0.48,0.12-0.97,0.22-1.45c0.09-0.48,0.22-0.96,0.36-1.43
	c0.14-0.46,0.31-0.93,0.49-1.38c0.19-0.45,0.4-0.9,0.63-1.33c0.23-0.43,0.48-0.85,0.75-1.26c0.27-0.41,0.57-0.8,0.88-1.18
	c0.31-0.38,0.64-0.75,0.99-1.1c0.34-0.34,0.71-0.68,1.09-0.99c0.38-0.31,0.78-0.6,1.19-0.87c0.4-0.27,0.83-0.53,1.26-0.76
	c0.43-0.22,0.88-0.44,1.33-0.62c0.45-0.19,0.91-0.36,1.38-0.5c0.47-0.14,0.95-0.26,1.42-0.36c0.49-0.09,0.97-0.17,1.46-0.22
	c0.98-0.1,1.97-0.1,2.95,0c0.49,0.05,0.97,0.13,1.46,0.22c0.47,0.1,0.95,0.22,1.42,0.36c0.47,0.14,0.93,0.31,1.38,0.5
	c0.45,0.18,0.9,0.4,1.33,0.62c0.43,0.23,0.85,0.49,1.26,0.76c0.41,0.27,0.81,0.56,1.19,0.87s0.75,0.65,1.09,0.99
	c0.35,0.35,0.68,0.72,0.99,1.1c0.31,0.38,0.6,0.77,0.88,1.18c0.27,0.41,0.52,0.83,0.75,1.26c0.23,0.43,0.44,0.88,0.63,1.33
	c0.18,0.45,0.35,0.92,0.49,1.38c0.14,0.47,0.26,0.95,0.36,1.43c0.1,0.48,0.17,0.97,0.22,1.45c0.05,0.49,0.08,0.99,0.08,1.48
	c0,0.49-0.03,0.99-0.08,1.47c-0.05,0.49-0.12,0.98-0.22,1.46c-0.1,0.48-0.22,0.96-0.36,1.42c-0.14,0.47-0.31,0.93-0.49,1.39
	c-0.19,0.45-0.4,0.89-0.63,1.32c-0.23,0.43-0.48,0.86-0.75,1.26c-0.28,0.41-0.57,0.81-0.88,1.19c-0.31,0.38-0.64,0.75-0.99,1.1
	c-0.34,0.34-0.71,0.67-1.09,0.99c-0.38,0.31-0.78,0.6-1.19,0.87c-0.41,0.27-0.83,0.52-1.26,0.75c-0.43,0.23-0.88,0.44-1.33,0.63
	c-0.45,0.19-0.91,0.35-1.38,0.5c-0.47,0.14-0.95,0.26-1.42,0.36c-0.49,0.09-0.97,0.17-1.46,0.22
	C215.98,69.85,215.48,69.88,215,69.88z"/>
<path class="st6" d="M346.71,133.31c-0.49,0-0.99-0.03-1.48-0.08c-0.49-0.05-0.97-0.12-1.46-0.22c-0.47-0.09-0.95-0.21-1.42-0.36
	c-0.47-0.14-0.93-0.31-1.38-0.49c-0.45-0.19-0.9-0.4-1.33-0.63c-0.43-0.23-0.85-0.48-1.26-0.75s-0.81-0.57-1.19-0.88
	c-0.38-0.31-0.75-0.64-1.09-0.99c-0.35-0.34-0.68-0.71-0.99-1.09c-0.31-0.38-0.61-0.78-0.88-1.19c-0.27-0.4-0.52-0.83-0.75-1.26
	c-0.23-0.43-0.44-0.87-0.63-1.33c-0.18-0.45-0.35-0.91-0.49-1.38c-0.14-0.46-0.26-0.94-0.36-1.42s-0.17-0.97-0.22-1.46
	c-0.05-0.49-0.08-0.98-0.08-1.47c0-0.49,0.03-0.99,0.08-1.48c0.05-0.48,0.12-0.97,0.22-1.45s0.22-0.96,0.36-1.43
	c0.14-0.46,0.31-0.93,0.49-1.38c0.19-0.45,0.4-0.9,0.63-1.33c0.23-0.43,0.48-0.85,0.75-1.26c0.27-0.41,0.57-0.81,0.88-1.18
	c0.31-0.38,0.64-0.75,0.99-1.1c0.34-0.34,0.71-0.68,1.09-0.99c0.38-0.31,0.78-0.6,1.19-0.87s0.83-0.53,1.26-0.76
	c0.43-0.23,0.88-0.44,1.33-0.62c0.45-0.19,0.91-0.36,1.38-0.5c0.47-0.14,0.95-0.26,1.42-0.36c0.49-0.1,0.97-0.17,1.46-0.22
	c0.98-0.1,1.97-0.1,2.95,0c0.49,0.05,0.98,0.12,1.46,0.22c0.47,0.1,0.95,0.22,1.42,0.36c0.47,0.14,0.93,0.31,1.38,0.5
	c0.45,0.18,0.9,0.39,1.33,0.62c0.43,0.23,0.85,0.49,1.26,0.76s0.81,0.56,1.18,0.87c0.39,0.31,0.75,0.65,1.1,0.99
	c0.35,0.35,0.68,0.72,0.99,1.1c0.31,0.37,0.6,0.77,0.88,1.18c0.26,0.41,0.52,0.83,0.75,1.26c0.23,0.43,0.44,0.88,0.63,1.33
	c0.18,0.45,0.35,0.92,0.49,1.38c0.14,0.47,0.26,0.95,0.36,1.43c0.1,0.48,0.17,0.97,0.22,1.45c0.05,0.49,0.07,0.99,0.07,1.48
	c0,0.49-0.02,0.98-0.07,1.47c-0.05,0.49-0.12,0.98-0.22,1.46c-0.1,0.48-0.22,0.96-0.36,1.42c-0.14,0.47-0.31,0.93-0.49,1.38
	c-0.19,0.46-0.4,0.9-0.63,1.33c-0.23,0.43-0.49,0.86-0.75,1.26c-0.28,0.41-0.57,0.81-0.88,1.19c-0.31,0.38-0.64,0.75-0.99,1.09
	c-0.35,0.35-0.71,0.68-1.1,0.99c-0.37,0.31-0.77,0.61-1.18,0.88s-0.83,0.52-1.26,0.75c-0.43,0.23-0.88,0.44-1.33,0.63
	c-0.45,0.18-0.91,0.35-1.38,0.49c-0.47,0.15-0.95,0.27-1.42,0.36c-0.48,0.1-0.97,0.17-1.46,0.22
	C347.69,133.28,347.19,133.31,346.71,133.31z"/>
<path class="st6" d="M379.23,275.83c-0.49,0-0.98-0.03-1.47-0.08c-0.49-0.04-0.98-0.12-1.46-0.21c-0.48-0.1-0.96-0.22-1.42-0.36
	c-0.47-0.15-0.94-0.31-1.39-0.5c-0.45-0.19-0.89-0.4-1.32-0.63s-0.86-0.48-1.27-0.75c-0.4-0.27-0.8-0.57-1.18-0.87
	c-0.38-0.32-0.75-0.65-1.09-1c-0.35-0.34-0.68-0.71-1-1.09c-0.3-0.38-0.6-0.78-0.87-1.19c-0.27-0.4-0.52-0.83-0.75-1.26
	c-0.23-0.43-0.44-0.87-0.63-1.33c-0.19-0.45-0.35-0.91-0.49-1.38c-0.15-0.46-0.27-0.94-0.36-1.42c-0.1-0.48-0.17-0.97-0.22-1.46
	c-0.05-0.49-0.08-0.98-0.08-1.47c0-0.49,0.03-0.99,0.08-1.48c0.05-0.48,0.12-0.97,0.22-1.45c0.09-0.48,0.21-0.96,0.36-1.43
	c0.14-0.46,0.3-0.93,0.49-1.38c0.19-0.45,0.4-0.9,0.63-1.33c0.23-0.43,0.48-0.85,0.75-1.26c0.27-0.41,0.57-0.8,0.87-1.18
	c0.32-0.38,0.65-0.75,1-1.1c0.34-0.34,0.71-0.68,1.09-0.99s0.78-0.6,1.18-0.87c0.41-0.27,0.84-0.53,1.27-0.76
	c0.43-0.22,0.87-0.44,1.32-0.62c0.45-0.19,0.92-0.36,1.39-0.5c0.46-0.14,0.94-0.26,1.42-0.36c0.48-0.09,0.97-0.17,1.46-0.22
	c0.97-0.1,1.97-0.1,2.95,0c0.48,0.05,0.97,0.13,1.45,0.22c0.48,0.1,0.96,0.22,1.43,0.36c0.46,0.14,0.93,0.31,1.38,0.5
	c0.45,0.18,0.9,0.4,1.33,0.62c0.43,0.23,0.85,0.49,1.26,0.76c0.41,0.27,0.8,0.56,1.18,0.87s0.75,0.65,1.1,0.99
	c0.34,0.35,0.68,0.72,0.99,1.1c0.31,0.38,0.6,0.77,0.87,1.18c0.27,0.41,0.53,0.83,0.76,1.26c0.23,0.43,0.44,0.88,0.62,1.33
	c0.19,0.45,0.36,0.92,0.5,1.38c0.14,0.47,0.26,0.95,0.36,1.43c0.1,0.48,0.17,0.97,0.22,1.45c0.05,0.49,0.07,0.99,0.07,1.48
	c0,0.49-0.02,0.98-0.07,1.47c-0.05,0.49-0.12,0.98-0.22,1.46c-0.1,0.48-0.22,0.96-0.36,1.42c-0.14,0.47-0.31,0.93-0.5,1.38
	c-0.18,0.46-0.39,0.9-0.62,1.33c-0.23,0.43-0.49,0.86-0.76,1.26c-0.27,0.41-0.56,0.81-0.87,1.19c-0.31,0.38-0.65,0.75-0.99,1.09
	c-0.35,0.35-0.72,0.68-1.1,1c-0.38,0.3-0.77,0.6-1.18,0.87c-0.41,0.27-0.83,0.52-1.26,0.75s-0.88,0.44-1.33,0.63
	c-0.45,0.19-0.92,0.35-1.38,0.5c-0.47,0.14-0.95,0.26-1.43,0.36c-0.48,0.09-0.97,0.17-1.45,0.21
	C380.22,275.8,379.72,275.83,379.23,275.83z"/>
<path class="st6" d="M288.09,390.12c-0.49,0-0.99-0.03-1.47-0.08c-0.49-0.05-0.98-0.12-1.46-0.22c-0.48-0.09-0.96-0.21-1.43-0.36
	c-0.46-0.14-0.93-0.31-1.38-0.49c-0.45-0.19-0.89-0.4-1.32-0.63c-0.44-0.23-0.86-0.48-1.27-0.75c-0.4-0.27-0.8-0.57-1.18-0.88
	s-0.75-0.64-1.09-0.99c-0.35-0.34-0.68-0.71-1-1.09c-0.3-0.38-0.6-0.78-0.87-1.19c-0.27-0.4-0.52-0.83-0.75-1.26
	c-0.23-0.43-0.44-0.87-0.63-1.33c-0.19-0.45-0.35-0.91-0.5-1.38c-0.14-0.47-0.26-0.94-0.36-1.42c-0.09-0.48-0.17-0.97-0.21-1.46
	c-0.05-0.49-0.08-0.98-0.08-1.47c0-0.49,0.03-0.99,0.08-1.48c0.04-0.48,0.12-0.97,0.21-1.45c0.1-0.48,0.22-0.96,0.36-1.43
	c0.15-0.47,0.31-0.93,0.5-1.38c0.19-0.45,0.4-0.9,0.63-1.33c0.23-0.43,0.48-0.85,0.75-1.26c0.27-0.41,0.57-0.81,0.87-1.18
	c0.32-0.38,0.65-0.75,1-1.1c0.34-0.35,0.71-0.68,1.09-0.99s0.78-0.6,1.18-0.87c0.41-0.27,0.83-0.53,1.27-0.76
	c0.43-0.23,0.87-0.44,1.32-0.62c0.45-0.19,0.92-0.36,1.38-0.5c0.47-0.14,0.95-0.26,1.43-0.36c0.48-0.1,0.97-0.17,1.46-0.22
	c0.97-0.1,1.97-0.1,2.95,0c0.48,0.05,0.97,0.12,1.45,0.22c0.48,0.1,0.96,0.22,1.43,0.36c0.46,0.14,0.93,0.31,1.38,0.5
	c0.45,0.18,0.89,0.39,1.32,0.62c0.44,0.23,0.86,0.49,1.27,0.76c0.4,0.27,0.8,0.56,1.18,0.87s0.75,0.64,1.1,0.99
	c0.34,0.35,0.68,0.72,0.99,1.1c0.31,0.37,0.6,0.77,0.87,1.18c0.27,0.41,0.52,0.83,0.75,1.26c0.23,0.43,0.44,0.88,0.63,1.33
	c0.19,0.45,0.35,0.91,0.49,1.38c0.15,0.47,0.27,0.95,0.37,1.43c0.09,0.48,0.17,0.97,0.22,1.45c0.04,0.49,0.07,0.99,0.07,1.48
	c0,0.49-0.03,0.98-0.07,1.47c-0.05,0.49-0.13,0.98-0.22,1.46c-0.1,0.48-0.22,0.95-0.37,1.42c-0.14,0.47-0.3,0.93-0.49,1.38
	c-0.19,0.46-0.4,0.9-0.63,1.33c-0.23,0.43-0.48,0.86-0.75,1.26c-0.27,0.41-0.56,0.81-0.87,1.19c-0.31,0.38-0.65,0.75-0.99,1.09
	c-0.35,0.35-0.72,0.68-1.1,0.99s-0.78,0.61-1.18,0.88c-0.41,0.27-0.83,0.52-1.27,0.75c-0.43,0.23-0.87,0.44-1.32,0.63
	c-0.45,0.18-0.92,0.35-1.38,0.49c-0.47,0.15-0.95,0.27-1.43,0.36c-0.48,0.1-0.97,0.17-1.45,0.22
	C289.08,390.09,288.58,390.12,288.09,390.12z"/>
<path class="st6" d="M141.88,390.12c-0.49,0-0.99-0.03-1.48-0.08c-0.48-0.05-0.97-0.12-1.45-0.22c-0.48-0.09-0.96-0.21-1.43-0.36
	c-0.46-0.14-0.93-0.31-1.38-0.49c-0.45-0.19-0.9-0.4-1.33-0.63c-0.43-0.23-0.85-0.48-1.26-0.75s-0.81-0.57-1.18-0.88
	c-0.38-0.31-0.75-0.64-1.1-0.99c-0.34-0.34-0.68-0.71-0.99-1.09c-0.31-0.38-0.6-0.78-0.87-1.19c-0.27-0.4-0.53-0.83-0.76-1.26
	c-0.23-0.43-0.44-0.87-0.62-1.33c-0.19-0.45-0.36-0.91-0.5-1.38c-0.14-0.46-0.26-0.94-0.36-1.42s-0.17-0.97-0.22-1.46
	c-0.05-0.49-0.07-0.98-0.07-1.47c0-0.49,0.02-0.99,0.07-1.48c0.05-0.48,0.12-0.97,0.22-1.45s0.22-0.96,0.36-1.43
	c0.14-0.46,0.31-0.93,0.5-1.38c0.18-0.45,0.39-0.9,0.62-1.33c0.23-0.43,0.49-0.85,0.76-1.26c0.27-0.41,0.56-0.81,0.87-1.18
	c0.31-0.38,0.65-0.75,0.99-1.1c0.35-0.35,0.72-0.68,1.1-0.99c0.37-0.31,0.77-0.6,1.18-0.87s0.83-0.53,1.26-0.76
	c0.43-0.23,0.88-0.44,1.33-0.62c0.45-0.19,0.92-0.36,1.38-0.5c0.47-0.14,0.95-0.26,1.43-0.36c0.48-0.1,0.97-0.17,1.45-0.22
	c0.98-0.1,1.97-0.1,2.95,0c0.49,0.05,0.98,0.12,1.46,0.22c0.48,0.1,0.96,0.22,1.42,0.36c0.47,0.14,0.93,0.31,1.38,0.5
	c0.46,0.18,0.9,0.39,1.33,0.62c0.43,0.23,0.86,0.49,1.26,0.76c0.41,0.27,0.81,0.56,1.19,0.87s0.75,0.64,1.09,0.99
	c0.35,0.35,0.68,0.72,0.99,1.1c0.31,0.37,0.61,0.77,0.88,1.18c0.27,0.41,0.52,0.83,0.75,1.26c0.23,0.43,0.44,0.88,0.63,1.33
	c0.19,0.45,0.35,0.92,0.49,1.38c0.15,0.47,0.27,0.95,0.36,1.43c0.1,0.48,0.17,0.97,0.22,1.45c0.05,0.49,0.08,0.99,0.08,1.48
	c0,0.49-0.03,0.98-0.08,1.47c-0.05,0.49-0.12,0.98-0.22,1.46c-0.09,0.48-0.21,0.96-0.36,1.42c-0.14,0.47-0.3,0.93-0.49,1.38
	c-0.19,0.46-0.4,0.9-0.63,1.33c-0.23,0.43-0.48,0.86-0.75,1.26c-0.27,0.41-0.57,0.81-0.88,1.19c-0.31,0.38-0.64,0.75-0.99,1.09
	c-0.34,0.35-0.71,0.68-1.09,0.99s-0.78,0.61-1.19,0.88c-0.4,0.27-0.83,0.52-1.26,0.75c-0.43,0.23-0.87,0.44-1.33,0.63
	c-0.45,0.18-0.91,0.35-1.38,0.49c-0.46,0.15-0.94,0.27-1.42,0.36c-0.48,0.1-0.97,0.17-1.46,0.22
	C142.86,390.09,142.37,390.12,141.88,390.12z"/>
<path class="st6" d="M50.76,275.82c-0.49,0-0.99-0.03-1.48-0.08c-0.48-0.05-0.97-0.12-1.45-0.22c-0.48-0.09-0.96-0.21-1.43-0.36
	c-0.46-0.14-0.93-0.31-1.38-0.49c-0.45-0.19-0.9-0.4-1.33-0.63c-0.43-0.23-0.85-0.48-1.26-0.75s-0.8-0.57-1.18-0.88
	c-0.38-0.31-0.75-0.64-1.1-0.99c-0.34-0.34-0.68-0.71-0.99-1.09c-0.31-0.38-0.6-0.78-0.87-1.19c-0.27-0.4-0.53-0.83-0.76-1.26
	c-0.22-0.43-0.44-0.88-0.62-1.33c-0.19-0.45-0.36-0.91-0.5-1.38c-0.14-0.47-0.26-0.94-0.36-1.42c-0.09-0.48-0.17-0.97-0.22-1.46
	c-0.05-0.49-0.07-0.98-0.07-1.47c0-0.49,0.02-0.99,0.07-1.48c0.05-0.48,0.13-0.97,0.22-1.45c0.1-0.48,0.22-0.96,0.36-1.43
	c0.14-0.47,0.31-0.93,0.5-1.38c0.18-0.45,0.4-0.9,0.62-1.33c0.23-0.43,0.49-0.85,0.76-1.26c0.27-0.41,0.56-0.81,0.87-1.18
	c0.31-0.39,0.65-0.75,0.99-1.1c0.35-0.35,0.72-0.68,1.1-0.99c0.38-0.31,0.77-0.6,1.18-0.88c0.41-0.26,0.83-0.52,1.26-0.75
	c0.43-0.23,0.88-0.44,1.33-0.62c0.45-0.19,0.92-0.36,1.38-0.5c0.47-0.14,0.95-0.26,1.43-0.36c0.48-0.1,0.97-0.17,1.45-0.22
	c0.98-0.1,1.98-0.1,2.95,0c0.49,0.05,0.98,0.12,1.46,0.22c0.48,0.1,0.96,0.22,1.42,0.36c0.47,0.14,0.93,0.31,1.39,0.5
	c0.45,0.18,0.89,0.39,1.32,0.62c0.43,0.23,0.86,0.49,1.26,0.75c0.41,0.28,0.81,0.57,1.19,0.88c0.38,0.31,0.75,0.64,1.09,0.99
	c0.35,0.35,0.68,0.71,0.99,1.1c0.31,0.37,0.61,0.77,0.88,1.18c0.27,0.41,0.52,0.83,0.75,1.26c0.23,0.43,0.44,0.88,0.63,1.33
	c0.19,0.45,0.35,0.91,0.49,1.38c0.15,0.47,0.27,0.95,0.37,1.43c0.09,0.48,0.17,0.97,0.21,1.45c0.05,0.49,0.08,0.99,0.08,1.48
	c0,0.49-0.03,0.98-0.08,1.47c-0.04,0.49-0.12,0.98-0.21,1.46c-0.1,0.48-0.22,0.95-0.37,1.42c-0.14,0.47-0.3,0.93-0.49,1.38
	c-0.19,0.45-0.4,0.9-0.63,1.33c-0.23,0.43-0.48,0.86-0.75,1.26c-0.27,0.41-0.57,0.81-0.88,1.19c-0.31,0.38-0.64,0.75-0.99,1.09
	c-0.34,0.35-0.71,0.68-1.09,0.99c-0.38,0.31-0.78,0.61-1.19,0.88c-0.4,0.27-0.83,0.52-1.26,0.75c-0.43,0.23-0.87,0.44-1.32,0.63
	c-0.46,0.18-0.92,0.35-1.39,0.49c-0.46,0.15-0.94,0.27-1.42,0.36c-0.48,0.1-0.97,0.17-1.46,0.22
	C51.74,275.79,51.25,275.82,50.76,275.82z"/>
<path class="st6" d="M83.28,133.31c-0.49,0-0.98-0.03-1.47-0.08c-0.49-0.05-0.98-0.12-1.46-0.22c-0.48-0.09-0.96-0.21-1.42-0.36
	c-0.47-0.14-0.93-0.31-1.38-0.49c-0.45-0.19-0.9-0.4-1.33-0.63c-0.43-0.23-0.86-0.48-1.26-0.75c-0.41-0.27-0.81-0.57-1.19-0.88
	c-0.38-0.31-0.75-0.64-1.09-0.99c-0.35-0.34-0.68-0.71-1-1.09c-0.3-0.38-0.6-0.78-0.87-1.19c-0.27-0.4-0.52-0.83-0.75-1.26
	c-0.23-0.43-0.44-0.88-0.63-1.33c-0.18-0.45-0.35-0.91-0.49-1.38c-0.15-0.47-0.27-0.95-0.36-1.42c-0.1-0.48-0.17-0.97-0.22-1.46
	c-0.05-0.49-0.08-0.98-0.08-1.47c0-0.49,0.03-0.99,0.08-1.48c0.05-0.48,0.12-0.97,0.22-1.45c0.09-0.48,0.21-0.96,0.36-1.43
	c0.14-0.47,0.31-0.93,0.49-1.38c0.19-0.45,0.4-0.9,0.63-1.33c0.23-0.43,0.48-0.85,0.75-1.26c0.27-0.41,0.57-0.81,0.87-1.18
	c0.32-0.39,0.65-0.75,1-1.1c0.34-0.35,0.71-0.68,1.09-0.99c0.38-0.31,0.78-0.6,1.19-0.87c0.4-0.27,0.83-0.53,1.26-0.76
	c0.43-0.23,0.88-0.44,1.33-0.62c0.45-0.19,0.91-0.36,1.38-0.5c0.46-0.14,0.94-0.26,1.42-0.36c0.48-0.1,0.97-0.17,1.46-0.22
	c0.98-0.1,1.97-0.1,2.95,0c0.48,0.05,0.97,0.12,1.45,0.22s0.96,0.22,1.43,0.36c0.46,0.14,0.93,0.31,1.38,0.5
	c0.45,0.18,0.9,0.39,1.33,0.62c0.43,0.23,0.85,0.49,1.26,0.76c0.41,0.27,0.81,0.56,1.18,0.87c0.38,0.31,0.75,0.64,1.1,0.99
	c0.35,0.35,0.68,0.71,0.99,1.1c0.31,0.37,0.6,0.77,0.87,1.18c0.27,0.41,0.53,0.83,0.76,1.26c0.23,0.43,0.44,0.88,0.62,1.33
	c0.19,0.45,0.36,0.91,0.5,1.38c0.14,0.47,0.26,0.95,0.36,1.43c0.1,0.48,0.17,0.97,0.22,1.45c0.05,0.49,0.07,0.99,0.07,1.48
	c0,0.49-0.02,0.98-0.07,1.47c-0.05,0.49-0.12,0.98-0.22,1.46c-0.1,0.47-0.22,0.95-0.36,1.42c-0.14,0.47-0.31,0.93-0.5,1.38
	c-0.18,0.45-0.39,0.9-0.62,1.33c-0.23,0.43-0.49,0.86-0.76,1.26c-0.27,0.41-0.56,0.81-0.87,1.19c-0.31,0.38-0.64,0.75-0.99,1.09
	c-0.35,0.35-0.72,0.68-1.1,0.99c-0.37,0.31-0.77,0.61-1.18,0.88c-0.41,0.27-0.83,0.52-1.26,0.75c-0.43,0.23-0.88,0.44-1.33,0.63
	c-0.45,0.18-0.92,0.35-1.38,0.49c-0.47,0.15-0.95,0.27-1.43,0.36c-0.48,0.1-0.97,0.17-1.45,0.22
	C84.27,133.28,83.77,133.31,83.28,133.31z"/>
</svg>
