<?xml version="1.0" encoding="utf-8"?>
<!-- Generator: Adobe Illustrator 26.2.1, SVG Export Plug-In . SVG Version: 6.00 Build 0)  -->
<svg version="1.1" id="Warstwa_1" xmlns="http://www.w3.org/2000/svg" xmlns:xlink="http://www.w3.org/1999/xlink" x="0px" y="0px"
	 viewBox="0 0 430 430" style="enable-background:new 0 0 430 430;" xml:space="preserve">
<style type="text/css">
	.st0{fill:#2ca58d;}
	.st1{opacity:0.5;fill:#2ca58d;}
	.st2{fill:#4bb3fd;}
	.st3{opacity:0.5;fill:#4bb3fd;}
	.st4{fill:#ffc738;}
	.st5{fill:#EBE6EF;}
	.st6{opacity:0.5;fill:#EBE6EF;}
	.st7{fill:#646E78;}
	.st8{opacity:0.5;fill:#646E78;}
	.st9{opacity:0.5;fill:#ffc738;}
	.st10{opacity:0.5;}
	.st11{fill:#121331;}
	.st12{fill:#FFFFFF;}
	.st13{fill:#3A3347;}
	.st14{fill:none;}
	.st15{opacity:0.5;fill:#F9C9C0;}
	.st16{fill:#B26836;}
	.st17{opacity:0.5;fill:#B26836;}
	.st18{fill:#F28BA8;}
	.st19{opacity:0.5;fill:#F28BA8;}
	.st20{fill:#F24C00;}
	.st21{opacity:0.5;fill:#F24C00;}
	.st22{fill:#92140C;}
	.st23{opacity:0.5;fill:#3A3347;}
	.st24{opacity:0.5;fill:#92140C;}
	.st25{fill:none;stroke:#121331;stroke-width:7;stroke-linecap:round;stroke-linejoin:round;stroke-miterlimit:10;}
	.st26{fill:#F9C9C0;}
</style>
<path class="st0" d="M247.1,375.9h-33.8c-3.4-29.1-11.7-30-12.5-59.2c-0.9-29.3,12-29.5,12-58.8c0-29.3-12-29.3-12-58.6
	c0-29.3,12-29.3,12-58.6c0-14-2.7-27.9-5.5-38.6c-2.6-9.8,4.8-19.4,14.9-19.4h0.1c7.2,0,13.4,5.1,15,12.1c4,17.7,10,21.3,10,45.9
	c0,29.3-12,29.3-12,58.6c0,29.3,12,29.3,12,58.6c0,29.3-12,29.3-12,58.6C235.1,345.9,250.5,346.8,247.1,375.9z"/>
<path class="st0" d="M330.9,292.2c0,29.3-12,29.3-12,58.6c0,11.7,2.4,18.8,5.2,25.1h-35.8c-1.9-6.2-3.4-13.3-3.8-24.9
	c-0.9-29.3,12-29.5,12-58.8c0-29.3-12-29.3-12-58.6c0-29.3,12-29.3,12-58.6c0-14-2.7-27.9-5.5-38.6c-2.6-9.8,4.8-19.4,14.9-19.4h0.1
	c7.2,0,13.4,5.1,15,12.1c4,17.7,10,21.3,10,45.9c0,29.3-12,29.3-12,58.6C318.9,262.9,330.9,262.9,330.9,292.2z"/>
<path class="st1" d="M231.9,375.9h-18.7c-3.4-29.1-11.7-30.1-12.5-59.2c-0.9-29.3,12-29.5,12-58.8c0-29.3-12-29.3-12-58.6
	c0-29.3,12-29.3,12-58.6c0-14-2.7-27.9-5.5-38.6c-2.6-9.8,4.8-19.4,14.9-19.4h0.1c3.4,0,6.7,1.2,9.3,3.1c-4.7,3.6-7.2,9.9-5.6,16.2
	c2.8,10.7,5.5,24.6,5.5,38.6c0,29.3-12,29.3-12,58.6c0,29.3,12,29.3,12,58.6c0,29.3-12.8,29.5-12,58.8
	C220.3,345.9,228.5,346.8,231.9,375.9z"/>
<path class="st1" d="M315.1,174.9c0,29.3-12,29.3-12,58.6c0,29.3,12,29.3,12,58.6c0,29.3-12.8,29.5-12,58.8
	c0.3,11.6,1.8,18.7,3.8,24.9h-18.7c-1.9-6.2-3.4-13.3-3.8-24.9c-0.9-29.3,12-29.5,12-58.8c0-29.3-12-29.3-12-58.6
	c0-29.3,12-29.3,12-58.6c0-14-2.7-27.9-5.5-38.6c-2.6-9.8,4.8-19.4,14.9-19.4h0.1c3.4,0,6.7,1.2,9.3,3.2c-4.7,3.6-7.2,9.9-5.6,16.2
	C312.4,147,315.1,160.9,315.1,174.9z"/>
<path class="st0" d="M154.1,271.3c0,29.3,12,29.3,12,58.6c0,0.3,0,0.5,0,0.8v0c-0.2,23.6-8.3,27.9-11.1,45.1h-34.7
	c2.1-14.4,8.6-20,10.7-35.4c-7.6-8.2-15.1-12.1-23-29.7c-12.1-26.7-1.1-31.7-13.2-58.4c-5.8-12.8-14-24.3-20.9-32.9
	c-2.4-2.9-3.5-6.3-3.5-9.7c0-5.8,3.3-11.5,9.1-14.1c6.6-2.9,14.3-0.9,18.7,4.9c10.9,14.5,17.8,15.3,28,37.7c0,0,5.6-12.6,5.6-25.6
	c0-14-2.7-27.9-5.5-38.6c-2.6-9.8,4.8-19.4,14.9-19.4h0.1c7.2,0,13.4,5.1,15,12.1c3.9,17.7,10,21.3,10,45.9
	C166.1,242,154.1,242,154.1,271.3z"/>
<path class="st1" d="M150.4,340.5c-2.1,15.5-8.6,21-10.7,35.4h-19.3c2.1-14.4,8.6-20,10.7-35.4c-7.6-8.2-15.1-12.1-23-29.7
	c-12.1-26.7-1.1-31.7-13.2-58.4c-5.8-12.8-13.9-24.3-20.9-32.9c-2.4-2.9-3.5-6.4-3.5-9.7c0-5.8,3.3-11.5,9.1-14.1
	c5.4-2.4,11.5-1.5,15.9,2.1c-3.7,3-5.8,7.5-5.8,12.1c0,3.4,1.1,6.8,3.5,9.7c7,8.6,15.1,20.1,20.9,32.9c12.1,26.7,1.1,31.7,13.2,58.4
	C135.3,328.4,142.7,332.2,150.4,340.5z"/>
<circle class="st2" cx="145.6" cy="77.6" r="23.5"/>
<path class="st2" d="M106.3,133.7c0,7.9-6.4,14.2-14.3,14.2c-7.9,0-14.2-6.4-14.2-14.2c0-7.9,6.4-14.3,14.2-14.3
	C99.9,119.4,106.3,125.8,106.3,133.7z"/>
<path class="st3" d="M152.6,100.2c-2.2,0.7-4.6,1.1-7,1.1c-13,0-23.5-10.5-23.5-23.5s10.5-23.5,23.5-23.5c2.4,0,4.8,0.4,7,1.1
	c-9.6,3-16.5,11.9-16.5,22.5S143.1,97.2,152.6,100.2z"/>
<path class="st3" d="M97.4,147c-1.7,0.7-3.5,1.1-5.4,1.1c-7.9,0-14.2-6.4-14.2-14.2c0-7.9,6.4-14.3,14.2-14.3c1.9,0,3.7,0.4,5.4,1.1
	c-5.2,2.1-8.9,7.2-8.9,13.2C88.5,139.7,92.2,144.8,97.4,147z"/>
<path class="st4" d="M359.6,379.3H87.6c-1.9,0-3.5-1.6-3.5-3.5s1.6-3.5,3.5-3.5h271.9c1.9,0,3.5,1.6,3.5,3.5
	S361.5,379.3,359.6,379.3z"/>
</svg>
