<svg xmlns="http://www.w3.org/2000/svg" viewBox="0 0 430 430">
  <defs>
    <style>
      .cls-1 {
        isolation: isolate;
      }

      .cls-2 {
        font-size: 48px;
        font-family: MyriadPro-Regular, Myriad Pro;
      }

      .cls-3 {
        letter-spacing: -0.08em;
      }

      .cls-4, .cls-5 {
        fill: #2ca58d;
      }

      .cls-5, .cls-8 {
        mix-blend-mode: multiply;
        opacity: 0.5;
      }

      .cls-6 {
        fill: #b26836;
      }

      .cls-7, .cls-8 {
        fill: #92140c;
      }
    </style>
  </defs>
  <g class="cls-1">
    <g id="Warstwa_1" data-name="Warstwa 1">
      <text class="cls-2" transform="translate(167.22 -11.36)">FL<tspan class="cls-3" x="46.03" y="0">A</tspan><tspan x="71.71" y="0">T</tspan></text>
      <g>
        <path class="cls-4" d="M193.79,77.12C209.32,85,219,99.21,220.19,113.43c-12.14,7.5-29.37,8.12-44.9.27C160.5,106.22,151,93,149.12,79.43a3.06,3.06,0,0,1,1.56-3.09C162.69,69.84,179,69.64,193.79,77.12Z"/>
        <path class="cls-5" d="M220.19,113.43c-12.14,7.5-29.36,8.13-44.89.27s-25.24-22.09-26.4-36.32c9.4,12.5,14.7,19.35,30.24,27.21S202.35,113.13,220.19,113.43Z"/>
        <path class="cls-6" d="M215,162.1a3.5,3.5,0,0,1-3.25-2.2c-1.59-4-8.93-25,3.53-45.35,9.8-16,27.89-25.15,47.22-23.85a3.5,3.5,0,0,1-.48,7c-16.7-1.13-32.34,6.73-40.78,20.52-10.94,17.86-3.83,37-3,39.09a3.49,3.49,0,0,1-2,4.55A3.45,3.45,0,0,1,215,162.1Z"/>
        <path class="cls-7" d="M347.93,243.34a134.53,134.53,0,0,1-20.77,71.19c-13.56,21.43-34.44,44-61.67,44a52.23,52.23,0,0,1-22.28-5,52.57,52.57,0,0,0-50.37-3.31,53.34,53.34,0,0,0-6.16,3.38,52.21,52.21,0,0,1-22.13,4.89c-25.28,0-45.4-20-59-39.69a133.32,133.32,0,0,1-23.48-75.48c0-42.18,21.91-100.6,72-100.6a59.34,59.34,0,0,1,25,5.49c9.74,4.38,23.5,10.57,37,10.37,13-.2,26.41-6.35,34.66-10.15a60.07,60.07,0,0,1,9-3.39,67.68,67.68,0,0,1,16.46-2.32C325.78,142.74,347.93,201.73,347.93,243.34Z"/>
        <path class="cls-8" d="M176.78,357.07a52.42,52.42,0,0,1-12.23,1.44c-25.28,0-45.4-20-59-39.7a133.22,133.22,0,0,1-23.49-75.47c0-42.19,21.91-100.6,72-100.6a58.88,58.88,0,0,1,11.88,1.2c-41.57,8.5-59.95,60.76-59.95,99.4a133.22,133.22,0,0,0,23.49,75.47C140.9,335.36,156.94,352.14,176.78,357.07Z"/>
      </g>
    </g>
  </g>
</svg>
