<svg xmlns="http://www.w3.org/2000/svg" viewBox="0 0 430 430">
  <defs>
    <style>
      .cls-1 {
        isolation: isolate;
      }

      .cls-2 {
        fill: #121331;
      }

      .cls-3, .cls-4 {
        fill: #92140c;
      }

      .cls-4, .cls-6 {
        mix-blend-mode: multiply;
        opacity: 0.5;
      }

      .cls-5, .cls-6 {
        fill: #646e78;
      }
    </style>
  </defs>
  <g class="cls-1">
    <g id="Warstwa_1" data-name="Warstwa 1">
      <g>
        <path class="cls-2" d="M250.42,145.13a3.5,3.5,0,0,0-3.5,3.5v44.91a31.79,31.79,0,0,1-28.25,31.55V148.63a3.5,3.5,0,0,0-7,0v76.46a31.8,31.8,0,0,1-28.26-31.55V148.63a3.5,3.5,0,0,0-7,0v44.91a38.8,38.8,0,0,0,35.26,38.58v37.79a3.5,3.5,0,0,0,7,0V232.12a38.8,38.8,0,0,0,35.25-38.58V148.63A3.5,3.5,0,0,0,250.42,145.13Z"/>
        <path class="cls-3" d="M370.29,186.45,341.7,170.73c0-.39,0-.79,0-1.19,0-13.11-6.59-29.87-21.48-42.73a155.68,155.68,0,0,0-24.43-17.38A162,162,0,0,0,218.68,88c-39.05-.92-78.38,12-109.26,38.8C94,140.14,87.47,157.66,88,171L59.71,186.46a3,3,0,0,0-.86,4.55l22.32,26.81a3,3,0,0,0,4.63,0l21.39-26.28c.25,0,.51,0,.77,0,13.51,0,28.88-9.09,40.9-19,37.38-32.42,94.56-32.42,131.94,0,12.35,10.14,28.24,19.45,42,18.93l21.39,26.29a3,3,0,0,0,4.63,0L371.15,191A3,3,0,0,0,370.29,186.45Z"/>
        <path class="cls-4" d="M218.85,120.22a3.5,3.5,0,0,1-3.5-3.5V88a3.5,3.5,0,0,1,7,0v28.76A3.5,3.5,0,0,1,218.85,120.22Z"/>
        <path class="cls-4" d="M283.13,136.49a3.5,3.5,0,0,1-3.07-5.17l12.85-23.61a3.5,3.5,0,1,1,6.15,3.35l-12.86,23.6A3.48,3.48,0,0,1,283.13,136.49Z"/>
        <path class="cls-4" d="M151.31,134.56a3.52,3.52,0,0,1-3.08-1.82l-12.85-23.61a3.5,3.5,0,1,1,6.14-3.35l12.86,23.61a3.49,3.49,0,0,1-3.07,5.17Z"/>
        <g>
          <rect class="cls-5" x="195.91" y="269.91" width="38.52" height="72.12" rx="3"/>
          <path class="cls-6" d="M221.24,342H198.91a3,3,0,0,1-3-3V272.91a3,3,0,0,1,3-3h7S201.21,342,221.24,342Z"/>
        </g>
      </g>
    </g>
  </g>
</svg>
