<svg xmlns="http://www.w3.org/2000/svg" viewBox="0 0 430 430">
  <defs>
    <style>
      .cls-1 {
        isolation: isolate;
      }

      .cls-2 {
        fill: #ffc738;
      }

      .cls-3, .cls-4 {
        fill: #92140c;
      }

      .cls-4 {
        mix-blend-mode: multiply;
        opacity: 0.5;
      }
    </style>
  </defs>
  <g class="cls-1">
    <g id="Warstwa_1" data-name="Warstwa 1">
      <g>
        <path class="cls-2" d="M273.1,160.16l12.46-88.5A3,3,0,0,0,283,68.27l-27.06-3.81A3,3,0,0,0,252.56,67L233.37,203.33l-3,1.93V51a3,3,0,0,0-3-3H200.08a3,3,0,0,0-3,3V214.72h-2.85L189.39,87a3,3,0,0,0-3.11-2.89l-27.32,1a3,3,0,0,0-2.88,3.11l4.25,112.18v0l.17,4.25.83.51-1-4.78v0L131,58.81a3,3,0,0,0-3.54-2.33L100.67,62a3,3,0,0,0-2.33,3.55L118,160.16l16.88,84.06,64.81,12.84,63-8.56Z"/>
        <g>
          <path class="cls-3" d="M296.25,163.41,280.11,363.8a3,3,0,0,1-4.28,2.47,188,188,0,0,0-79.93-17.52c-13.46,0-45.86,1.39-79.92,17.52a3,3,0,0,1-4.28-2.46q-8.06-100.2-16.15-200.4a3,3,0,0,1,3-3.25H135a5,5,0,0,0,0,.54c0,29.85,27.29,54.05,61,54.05s61-24.2,61-54.05c0-.18,0-.35,0-.54h36.41A3,3,0,0,1,296.25,163.41Z"/>
          <path class="cls-4" d="M195.9,348.74c-13.46,0-45.87,1.39-79.93,17.53a3,3,0,0,1-4.27-2.46q-8.07-100.2-16.15-200.41a3,3,0,0,1,3-3.24H116.6C116.5,181.93,118.29,347.68,195.9,348.74Z"/>
        </g>
        <path class="cls-4" d="M252.74,323.79a3.81,3.81,0,0,1-.82-.09A241.26,241.26,0,0,0,141,323.42a3.5,3.5,0,1,1-1.59-6.82,248.4,248.4,0,0,1,114.11.29,3.5,3.5,0,0,1-.81,6.9Z"/>
      </g>
    </g>
  </g>
</svg>
